# xmcd CD database file
#
# Track frame offsets:
#	187
#	15932
#	30902
#	46520
#	70405
#	90800
#	105582
#	119755
#	135662
#	161682
#	178740
#	191405
#	201002
#	214857
#	228467
#	243450
#
# Disc length: 3423 seconds
#
# Revision: 0
# Processed by: cddbd v1.5.1PL0 Copyright (c) Steve Scherf et al.
# Submitted via: CDex 1.51
#
DISCID=cb0d5d10
DTITLE=Ｖａｒｉｏｕｓ - ディスコ・スーパー・ヒッツ・コレクション　Ｖｏｌ．９
DYEAR=1900
DGENRE=Disco
TTITLE0=サマーナイト・シティ／アバ
TTITLE1=恋のサバイバル／グロリア・ゲイナー
TTITLE2=シェイク・ユア・グルーヴ／ピーチェス＆ハープ
TTITLE3=セックス・マシーン／ジェームス・ブラウン
TTITLE4=シャドウ・ダンシング／アンディ・ギブ
TTITLE5=ディスコ・ダック／リック・ディーズ
TTITLE6=ホット・パンツ／ジェームス・ブラウン
TTITLE7=シュガー・ベイビー・ラヴ／ザ・ルベッツ
TTITLE8=恋の仲直り／ピーチェス＆ハープ
TTITLE9=恋のときめき／アンディ・ギブ
TTITLE10=マンズ・マンズ・ワールド／ジェームス・ブラウン
TTITLE11=パパのニュー・バッグ／ジェームス・ブラウン
TTITLE12=恋のジューク・ボックス／ザ・ルベッツ
TTITLE13=さよならは言わないで／グロリア・ゲイナー
TTITLE14=マザー・ポップコーン／ジェームス・ブラウン
TTITLE15=アイ・キャント・ハヴ・ユー／イボンヌ・エルマン
EXTD=
EXTT0=
EXTT1=
EXTT2=
EXTT3=
EXTT4=
EXTT5=
EXTT6=
EXTT7=
EXTT8=
EXTT9=
EXTT10=
EXTT11=
EXTT12=
EXTT13=
EXTT14=
EXTT15=
PLAYORDER=
